# xmcd
#
# Track frame offsets:
# 150
# 12104
# 24888
# 37310
# 58112
# 74768
# 85990
# 98395
# 108579
# 124791
# 137067
# 147812
# 157562
# 178514
# 190127
# 201616
# 212511
# 224850
# 238985
# 250830
#
# Disc length: 3498 seconds
#
#
# Revision: 3
# Processed by: cddbd v1.5.2PL0 Copyright (c) Steve Scherf et al.
# Submitted via: FreeRIP 2.951 
#
DISCID=280da814
DTITLE=Country - Love Songs
DYEAR=1900
DGENRE=
TTITLE0=Kenny Rogers - Meand Bobby Mc Gee
TTITLE1=Lynn Anderson - Top of the world
TTITLE2=Donovan - Colors
TTITLE3=Melanie - Ruby tuesday
TTITLE4=Lynn Anderson - Blue bayou
TTITLE5=Don Gybson - Country Green
TTITLE6=Patsy Cline - Crazy
TTITLE7=Poster Wagoner - Green, green grass of home
TTITLE8=Billie Jo Spears - I Fall to pieces
TTITLE9=Johnny Cash - I walk the line
TTITLE10=Billie Jo Spears - I´m so lonesome I could cry
TTITLE11=Freddy Fenders - Before the next teardrop falls
TTITLE12=Tania Tucker - Baby I´m yours
TTITLE13=Willie Nelson - Is there something on your mind
TTITLE14=Willie Nelson - Night Life
TTITLE15=Hank Locklin - Send me the pillow
TTITLE16=Lynn Anderson - Stand by your man
TTITLE17=Kenny Rogers - Sunshine
TTITLE18=Wanda Jackson - Sweet Dreams
TTITLE19=Dolly Parton - Letter to heaven
EXTD=
EXTT0=
EXTT1=
EXTT2=
EXTT3=
EXTT4=
EXTT5=
EXTT6=
EXTT7=
EXTT8=
EXTT9=
EXTT10=
EXTT11=
EXTT12=
EXTT13=
EXTT14=
EXTT15=
EXTT16=
EXTT17=
EXTT18=
EXTT19=
PLAYORDER=
